<svg xmlns="http://www.w3.org/2000/svg" version="1.1" xmlns:xlink="http://www.w3.org/1999/xlink" xmlns:svgjs="http://svgjs.dev/svgjs" width="1000" height="623" viewBox="0 0 1000 623"><g transform="matrix(1,0,0,1,-0.6060606060606233,0.2522267206477409)"><svg viewBox="0 0 396 247" data-background-color="#ffffff" preserveAspectRatio="xMidYMid meet" height="623" width="1000" xmlns="http://www.w3.org/2000/svg" xmlns:xlink="http://www.w3.org/1999/xlink"><g id="tight-bounds" transform="matrix(1,0,0,1,0.2400000000000091,-0.09999999999999432)"><svg viewBox="0 0 395.52 247.2" height="247.2" width="395.52"><g><svg></svg></g><g><svg viewBox="0 0 395.52 247.2" height="247.2" width="395.52"><g transform="matrix(1,0,0,1,39.55199999999999,92.1871768631813)"><svg viewBox="0 0 316.416 62.825646273637375" height="62.825646273637375" width="316.416"><g><svg viewBox="0 0 316.416 62.825646273637375" height="62.825646273637375" width="316.416"><g><svg viewBox="0 0 316.416 62.825646273637375" height="62.825646273637375" width="316.416"><g><svg viewBox="0 0 316.416 62.825646273637375" height="62.825646273637375" width="316.416"><g><svg viewBox="0 0 316.416 62.825646273637375" height="62.825646273637375" width="316.416"><g transform="matrix(1,0,0,1,0,0)"><svg width="316.416" viewBox="2.5 -35.04999923706055 178.38999938964844 35.70000076293945" height="62.825646273637375" data-palette-color="#ff1900"><g class="undefined-text-0" data-fill-palette-color="primary" id="text-0"><path d="M15.65-35.05Q18.35-35.05 20.35-34.23 22.35-33.4 24.3-31.65L24.3-31.65 21.9-28.85Q20.45-30.1 19.03-30.7 17.6-31.3 15.9-31.3L15.9-31.3Q12-31.3 9.7-27.98 7.4-24.65 7.4-17.25L7.4-17.25Q7.4-10.05 9.7-6.63 12-3.2 15.9-3.2L15.9-3.2Q17.85-3.2 19.25-3.9 20.65-4.6 22.3-5.95L22.3-5.95 24.65-3.2Q20.9 0.65 15.65 0.65L15.65 0.65Q11.8 0.65 8.83-1.35 5.85-3.35 4.17-7.38 2.5-11.4 2.5-17.25L2.5-17.25Q2.5-23.05 4.23-27.05 5.95-31.05 8.93-33.05 11.9-35.05 15.65-35.05L15.65-35.05ZM51.7 0L46.55 0 39.15-14.65 38.85-14.65 34.3-14.65 34.3 0 29.65 0 29.65-34.4 37.7-34.4Q50-34.4 50-24.7L50-24.7Q50-21.3 48.35-18.95 46.7-16.6 43.5-15.5L43.5-15.5 51.7 0ZM38.05-18.2Q41.65-18.2 43.4-19.78 45.15-21.35 45.15-24.7L45.15-24.7Q45.15-27.85 43.37-29.35 41.6-30.85 37.6-30.85L37.6-30.85 34.3-30.85 34.3-18.2 38.05-18.2ZM78.59 0L73.8 0 71.5-8.75 59.95-8.75 57.65 0 53 0 62.95-34.4 68.65-34.4 78.59 0ZM65.75-30.7L60.9-12.4 70.55-12.4 65.75-30.7ZM90.99-34.4Q97.19-34.4 100.44-31.75 103.69-29.1 103.69-23.8L103.69-23.8Q103.69-18.2 100.37-15.48 97.04-12.75 91.14-12.75L91.14-12.75 87.84-12.75 87.84 0 83.19 0 83.19-34.4 90.99-34.4ZM90.99-16.35Q94.94-16.35 96.89-18 98.84-19.65 98.84-23.75L98.84-23.75Q98.84-27.5 96.92-29.18 94.99-30.85 91.04-30.85L91.04-30.85 87.84-30.85 87.84-16.35 90.99-16.35Z" fill="#ff1900" data-fill-palette-color="primary"></path><path d="M129.64 0L124.84 0 122.54-8.75 110.99-8.75 108.69 0 104.04 0 113.99-34.4 119.69-34.4 129.64 0ZM116.79-30.7L111.94-12.4 121.59-12.4 116.79-30.7ZM142.04-34.4Q148.24-34.4 151.49-31.75 154.74-29.1 154.74-23.8L154.74-23.8Q154.74-18.2 151.41-15.48 148.09-12.75 142.19-12.75L142.19-12.75 138.89-12.75 138.89 0 134.24 0 134.24-34.4 142.04-34.4ZM142.04-16.35Q145.99-16.35 147.94-18 149.89-19.65 149.89-23.75L149.89-23.75Q149.89-27.5 147.96-29.18 146.04-30.85 142.09-30.85L142.09-30.85 138.89-30.85 138.89-16.35 142.04-16.35ZM168.19-34.4Q174.39-34.4 177.64-31.75 180.89-29.1 180.89-23.8L180.89-23.8Q180.89-18.2 177.56-15.48 174.24-12.75 168.34-12.75L168.34-12.75 165.04-12.75 165.04 0 160.39 0 160.39-34.4 168.19-34.4ZM168.19-16.35Q172.14-16.35 174.09-18 176.04-19.65 176.04-23.75L176.04-23.75Q176.04-27.5 174.11-29.18 172.19-30.85 168.24-30.85L168.24-30.85 165.04-30.85 165.04-16.35 168.19-16.35Z" fill="#09a11c" data-fill-palette-color="secondary"></path></g></svg></g></svg></g></svg></g></svg></g></svg></g></svg></g><g mask="url(#19235de5-d855-420c-af5d-9be6559b3d04)"><g transform="matrix(3.4055555555555554, 0, 0, 3.4055555555555554, 75.16, 1)"><svg xmlns="http://www.w3.org/2000/svg" xmlns:xlink="http://www.w3.org/1999/xlink" version="1.1" x="0" y="0" viewBox="14 14 72 72" enable-background="new 0 0 100 100" xml:space="preserve" height="72" width="72" class="icon-none" data-fill-palette-color="accent" id="none"><path d="M77 14H23c-4.971 0-9 4.029-9 9v54c0 4.971 4.029 9 9 9h54c4.971 0 9-4.029 9-9V23C86 18.029 81.971 14 77 14zM32 23c4.971 0 9 4.029 9 9s-4.029 9-9 9-9-4.029-9-9S27.029 23 32 23zM32 77c-4.971 0-9-4.029-9-9s4.029-9 9-9 9 4.029 9 9S36.971 77 32 77zM50 59c-4.971 0-9-4.029-9-9s4.029-9 9-9 9 4.029 9 9S54.971 59 50 59zM68 77c-4.971 0-9-4.029-9-9s4.029-9 9-9 9 4.029 9 9S72.971 77 68 77zM68 41c-4.971 0-9-4.029-9-9s4.029-9 9-9 9 4.029 9 9S72.971 41 68 41z" fill="#895326" data-fill-palette-color="accent"></path></svg></g></g></svg></g><defs><mask id="2786afa3-c942-4e06-b4ca-fa7cc38d1e1d"><rect width="640" height="400" fill="white"></rect><rect width="348.05760000000004" height="90.08929213558498" fill="black" x="145.97119999999998" y="154.95535393220752" id="transform-me" transform="matrix(1,0,0,1,-122.24000000000001,-76.4)"></rect></mask><mask id="5a0e216a-7662-4c48-9be3-4cfa4cd96dad"><rect width="640" height="400" fill="white"></rect><rect width="348.05760000000004" height="90.08929213558498" fill="black" x="145.97119999999998" y="154.95535393220752" id="transform-me" transform="matrix(1,0,0,1,-122.24000000000001,-76.4)"></rect></mask><mask id="1f7b1999-8ef2-4f3a-8b16-d5557d73fdaa"><rect width="640" height="400" fill="white"></rect><rect width="348.05760000000004" height="90.08929213558498" fill="black" x="145.97119999999998" y="154.95535393220752" id="transform-me" transform="matrix(1,0,0,1,-122.24000000000001,-76.4)"></rect></mask><mask id="a90e6664-578b-454b-bfea-7ace065a1183"><rect width="640" height="400" fill="white"></rect><rect width="348.05760000000004" height="90.08929213558498" fill="black" x="145.97119999999998" y="154.95535393220752" id="transform-me" transform="matrix(1,0,0,1,-122.24000000000001,-76.4)"></rect></mask><mask id="6db8b450-e3d2-44f0-84b7-8e48012f52f8"><rect width="640" height="400" fill="white"></rect><rect width="348.05760000000004" height="90.08929213558498" fill="black" x="145.97119999999998" y="154.95535393220752" id="transform-me" transform="matrix(1,0,0,1,-122.24000000000001,-76.4)"></rect></mask><mask id="e4afb795-4b11-4454-874e-963dbe102f47"><rect width="640" height="400" fill="white"></rect><rect width="348.05760000000004" height="90.08929213558498" fill="black" x="145.97119999999998" y="154.95535393220752" id="transform-me" transform="matrix(1,0,0,1,-122.24000000000001,-76.4)"></rect></mask><mask id="5dd09b60-2677-4d26-ba26-6500465d5b2d"><rect width="640" height="400" fill="white"></rect><rect width="348.05760000000004" height="90.08929213558498" fill="black" x="145.97119999999998" y="154.95535393220752" id="transform-me" transform="matrix(1,0,0,1,-122.24000000000001,-76.4)"></rect></mask><mask id="8fd43a72-031b-4905-8ca4-1c6095e886bf"><rect width="640" height="400" fill="white"></rect><rect width="348.05760000000004" height="90.08929213558498" fill="black" x="145.97119999999998" y="154.95535393220752" id="transform-me" transform="matrix(1,0,0,1,-122.24000000000001,-76.4)"></rect></mask><mask id="141e9ab7-a3ca-4234-baa6-7a0180268e38"><rect width="640" height="400" fill="white"></rect><rect width="348.05760000000004" height="90.08929213558498" fill="black" x="145.97119999999998" y="154.95535393220752" id="transform-me" transform="matrix(1,0,0,1,-122.24000000000001,-76.4)"></rect></mask><mask id="33e1165b-16d7-4e1e-a226-01915d4788c4"><rect width="640" height="400" fill="white"></rect><rect width="348.05760000000004" height="90.08929213558498" fill="black" x="145.97119999999998" y="154.95535393220752" id="transform-me" transform="matrix(1,0,0,1,-122.24000000000001,-76.4)"></rect></mask><mask id="9e071c58-fe94-4a54-9a9b-f01b10cb9096"><rect width="640" height="400" fill="white"></rect><rect width="348.05760000000004" height="90.08929213558498" fill="black" x="145.97119999999998" y="154.95535393220752" id="transform-me" transform="matrix(1,0,0,1,-122.24000000000001,-76.4)"></rect></mask><mask id="4136a365-1737-4c61-b1b0-0662903031a1"><rect width="640" height="400" fill="white"></rect><rect width="348.05760000000004" height="90.08929213558498" fill="black" x="145.97119999999998" y="154.95535393220752" id="transform-me" transform="matrix(1,0,0,1,-122.24000000000001,-76.4)"></rect></mask><mask id="6be0c67c-e82e-4706-abcd-a48f6039366c"><rect width="640" height="400" fill="white"></rect><rect width="348.05760000000004" height="90.08929213558498" fill="black" x="145.97119999999998" y="154.95535393220752" id="transform-me" transform="matrix(1,0,0,1,-122.24000000000001,-76.4)"></rect></mask><mask id="c2f29b55-a20f-429e-a711-5904b077dcda"><rect width="640" height="400" fill="white"></rect><rect width="348.05760000000004" height="90.08929213558498" fill="black" x="145.97119999999998" y="154.95535393220752" id="transform-me" transform="matrix(1,0,0,1,-122.24000000000001,-76.4)"></rect></mask><mask id="eb12be34-3815-436b-9f1b-d1687ddafc0f"><rect width="640" height="400" fill="white"></rect><rect width="348.05760000000004" height="90.08929213558498" fill="black" x="145.97119999999998" y="154.95535393220752" id="transform-me" transform="matrix(1,0,0,1,-122.24000000000001,-76.4)"></rect></mask><mask id="7c844930-00ea-4144-abe6-f617a74e781c"><rect width="640" height="400" fill="white"></rect><rect width="348.05760000000004" height="90.08929213558498" fill="black" x="145.97119999999998" y="154.95535393220752" id="transform-me" transform="matrix(1,0,0,1,-122.24000000000001,-76.4)"></rect></mask><mask id="57cde55a-0ff7-49a9-a428-48fba57c64c5"><rect width="640" height="400" fill="white"></rect><rect width="348.05760000000004" height="90.08929213558498" fill="black" x="145.97119999999998" y="154.95535393220752" id="transform-me" transform="matrix(1,0,0,1,-122.24000000000001,-76.4)"></rect></mask><mask id="5b17325f-13b4-4d33-8d54-a355c0c1968d"><rect width="640" height="400" fill="white"></rect><rect width="348.05760000000004" height="90.08929213558498" fill="black" x="145.97119999999998" y="154.95535393220752" id="transform-me" transform="matrix(1,0,0,1,-122.24000000000001,-76.4)"></rect></mask><mask id="03046bee-34bc-4d7b-a4fd-52c33632c899"><rect width="640" height="400" fill="white"></rect><rect width="348.05760000000004" height="90.08929213558498" fill="black" x="145.97119999999998" y="154.95535393220752" id="transform-me" transform="matrix(1,0,0,1,-122.24000000000001,-76.4)"></rect></mask><mask id="a36d577a-5c71-49ec-a73b-10ed2142f3de"><rect width="640" height="400" fill="white"></rect><rect width="348.05760000000004" height="90.08929213558498" fill="black" x="145.97119999999998" y="154.95535393220752" id="transform-me" transform="matrix(1,0,0,1,-122.24000000000001,-76.4)"></rect></mask><mask id="8acc4fc6-819a-4283-aa4e-f3fc41e4b1ca"><rect width="640" height="400" fill="white"></rect><rect width="348.05760000000004" height="90.08929213558498" fill="black" x="145.97119999999998" y="154.95535393220752" id="transform-me" transform="matrix(1,0,0,1,-122.24000000000001,-76.4)"></rect></mask><mask id="67ba291f-d592-41aa-a76f-e48debc854f5"><rect width="640" height="400" fill="white"></rect><rect width="348.05760000000004" height="90.08929213558498" fill="black" x="145.97119999999998" y="154.95535393220752" id="transform-me" transform="matrix(1,0,0,1,-122.24000000000001,-76.4)"></rect></mask><mask id="8e215c79-cd68-4728-ba63-1a3ac9c90b9b"><rect width="640" height="400" fill="white"></rect><rect width="348.05760000000004" height="90.08929213558498" fill="black" x="145.97119999999998" y="154.95535393220752" id="transform-me" transform="matrix(1,0,0,1,-122.24000000000001,-76.4)"></rect></mask><mask id="e2ada1d8-190f-40be-b1b5-6dc48641c151"><rect width="640" height="400" fill="white"></rect><rect width="348.05760000000004" height="90.08929213558498" fill="black" x="145.97119999999998" y="154.95535393220752" id="transform-me" transform="matrix(1,0,0,1,-122.24000000000001,-76.4)"></rect></mask><mask id="cf6ab723-9158-464c-9687-27630e2c4d84"><rect width="640" height="400" fill="white"></rect><rect width="348.05760000000004" height="90.08929213558498" fill="black" x="145.97119999999998" y="154.95535393220752" id="transform-me" transform="matrix(1,0,0,1,-122.24000000000001,-76.4)"></rect></mask><mask id="684bc619-f523-4f98-a4f6-8f37da9da833"><rect width="640" height="400" fill="white"></rect><rect width="348.05760000000004" height="90.08929213558498" fill="black" x="145.97119999999998" y="154.95535393220752" id="transform-me" transform="matrix(1,0,0,1,-122.24000000000001,-76.4)"></rect></mask><mask id="8ada13ca-1d54-473f-89ab-73c996978b49"><rect width="640" height="400" fill="white"></rect><rect width="348.05760000000004" height="90.08929213558498" fill="black" x="145.97119999999998" y="154.95535393220752" id="transform-me" transform="matrix(1,0,0,1,-122.24000000000001,-76.4)"></rect></mask><mask id="56f3b552-9014-4032-847a-59f9f9335321"><rect width="640" height="400" fill="white"></rect><rect width="348.05760000000004" height="91.99725354854309" fill="black" x="145.97119999999998" y="154.00137322572846" id="transform-me" transform="matrix(1,0,0,1,-122.24000000000001,-76.4)"></rect></mask><mask id="d1497d94-b9a5-40ed-9e11-d6902a4a3068"><rect width="640" height="400" fill="white"></rect><rect width="348.05760000000004" height="94.63912832811528" fill="black" x="145.97119999999998" y="152.68043583594238" id="transform-me" transform="matrix(1,0,0,1,-122.24000000000001,-76.4)"></rect></mask><mask id="fc03edf3-1011-41f6-860b-199aaaed57c8"><rect width="640" height="400" fill="white"></rect><rect width="348.05760000000004" height="92.48890081302781" fill="black" x="145.97119999999998" y="153.75554959348608" id="transform-me" transform="matrix(1,0,0,1,-122.24000000000001,-76.4)"></rect></mask><mask id="5597cb9d-9756-4431-b572-987d9fd41f8c"><rect width="640" height="400" fill="white"></rect><rect width="348.05760000000004" height="89.37241441642834" fill="black" x="145.97119999999998" y="155.31379279178583" id="transform-me" transform="matrix(1,0,0,1,-122.24000000000001,-76.4)"></rect></mask><mask id="64604427-6792-4398-8660-2743ccfce925"><rect width="640" height="400" fill="white"></rect><rect width="348.05760000000004" height="92.48890081302781" fill="black" x="145.97119999999998" y="153.75554959348608" id="transform-me" transform="matrix(1,0,0,1,-122.24000000000001,-76.4)"></rect></mask><mask id="c8ba4c4f-643e-4e0e-b8b4-0b24966081e8"><rect width="640" height="400" fill="white"></rect><rect width="348.05760000000004" height="89.37241441642834" fill="black" x="145.97119999999998" y="155.31379279178583" id="transform-me" transform="matrix(1,0,0,1,-122.24000000000001,-76.4)"></rect></mask><mask id="bd43e84b-dc78-407a-ac5b-fee204c99bbd"><rect width="640" height="400" fill="white"></rect><rect width="348.05760000000004" height="94.63912832811528" fill="black" x="145.97119999999998" y="152.68043583594238" id="transform-me" transform="matrix(1,0,0,1,-122.24000000000001,-76.4)"></rect></mask><mask id="19235de5-d855-420c-af5d-9be6559b3d04"><rect width="640" height="400" fill="white"></rect><rect width="348.05760000000004" height="92.48890081302781" fill="black" x="145.97119999999998" y="153.75554959348608" id="transform-me" transform="matrix(1,0,0,1,-122.24000000000001,-76.4)"></rect></mask></defs></svg><rect width="395.52" height="247.2" fill="none" stroke="none" visibility="hidden"></rect></g></svg></g></svg>